<mxfile host="app.diagrams.net" modified="2023-09-11T18:24:20.598Z" agent="Mozilla/5.0 (Windows NT 10.0; Win64; x64) AppleWebKit/537.36 (KHTML, like Gecko) Chrome/114.0.0.0 Safari/537.36 Edg/114.0.1823.86" etag="c0jq402trg6x9nmT6KIi" version="21.7.4" type="github">
  <diagram name="Page-1" id="e7e014a7-5840-1c2e-5031-d8a46d1fe8dd">
    <mxGraphModel dx="850" dy="766" grid="1" gridSize="10" guides="1" tooltips="1" connect="1" arrows="1" fold="1" page="1" pageScale="1" pageWidth="1169" pageHeight="826" background="none" math="0" shadow="0">
      <root>
        <mxCell id="0" />
        <mxCell id="1" parent="0" />
        <mxCell id="2" value="Consumer " style="swimlane;whiteSpace=wrap" parent="1" vertex="1">
          <mxGeometry x="164.5" y="128" width="280" height="570" as="geometry" />
        </mxCell>
        <mxCell id="5" value="" style="ellipse;shape=startState;fillColor=#000000;strokeColor=#ff0000;" parent="2" vertex="1">
          <mxGeometry x="10.5" y="32" width="30" height="30" as="geometry" />
        </mxCell>
        <mxCell id="6" value="" style="edgeStyle=elbowEdgeStyle;elbow=horizontal;verticalAlign=bottom;endArrow=open;endSize=8;strokeColor=#FF0000;endFill=1;rounded=0;entryX=0.5;entryY=0;entryDx=0;entryDy=0;" parent="2" source="5" target="gkslSzUZBu15OZ3BqOwb-41" edge="1">
          <mxGeometry x="100" y="40" as="geometry">
            <mxPoint x="114.88095238095241" y="110" as="targetPoint" />
          </mxGeometry>
        </mxCell>
        <mxCell id="gkslSzUZBu15OZ3BqOwb-41" value="Do you want to register for a course with FFYAM?" style="rhombus;whiteSpace=wrap;html=1;fontColor=#000000;fillColor=#ffffc0;strokeColor=#ff0000;" vertex="1" parent="2">
          <mxGeometry x="25.5" y="142" width="95" height="88" as="geometry" />
        </mxCell>
        <mxCell id="gkslSzUZBu15OZ3BqOwb-42" value="no" style="edgeStyle=orthogonalEdgeStyle;html=1;align=left;verticalAlign=bottom;endArrow=open;endSize=8;strokeColor=#ff0000;rounded=0;exitX=1;exitY=0.5;exitDx=0;exitDy=0;entryX=0.391;entryY=0.601;entryDx=0;entryDy=0;entryPerimeter=0;" edge="1" source="gkslSzUZBu15OZ3BqOwb-41" parent="2" target="gkslSzUZBu15OZ3BqOwb-48">
          <mxGeometry x="-0.7489" y="4" relative="1" as="geometry">
            <mxPoint x="245.5" y="245" as="targetPoint" />
            <Array as="points">
              <mxPoint x="176" y="166" />
              <mxPoint x="176" y="219" />
            </Array>
            <mxPoint as="offset" />
          </mxGeometry>
        </mxCell>
        <mxCell id="gkslSzUZBu15OZ3BqOwb-48" value="" style="shape=sumEllipse;perimeter=ellipsePerimeter;whiteSpace=wrap;html=1;backgroundOutline=1;" vertex="1" parent="2">
          <mxGeometry x="130.5" y="202" width="24.5" height="28" as="geometry" />
        </mxCell>
        <mxCell id="gkslSzUZBu15OZ3BqOwb-49" value="Does the consumer want to place a special request" style="rhombus;whiteSpace=wrap;html=1;fontColor=#000000;fillColor=#ffffc0;strokeColor=#ff0000;" vertex="1" parent="2">
          <mxGeometry x="52.5" y="246" width="110" height="98" as="geometry" />
        </mxCell>
        <mxCell id="gkslSzUZBu15OZ3BqOwb-52" value="Alert CSR of special request" style="rounded=1;whiteSpace=wrap;html=1;arcSize=40;fontColor=#000000;fillColor=#ffffc0;strokeColor=#ff0000;" vertex="1" parent="2">
          <mxGeometry x="65.5" y="404" width="95.5" height="68" as="geometry" />
        </mxCell>
        <mxCell id="gkslSzUZBu15OZ3BqOwb-51" value="yes" style="edgeStyle=orthogonalEdgeStyle;html=1;align=left;verticalAlign=top;endArrow=open;endSize=8;strokeColor=#ff0000;rounded=0;entryX=0.5;entryY=0;entryDx=0;entryDy=0;exitX=0.558;exitY=0.915;exitDx=0;exitDy=0;exitPerimeter=0;" edge="1" source="gkslSzUZBu15OZ3BqOwb-49" parent="2" target="gkslSzUZBu15OZ3BqOwb-52">
          <mxGeometry x="1" y="104" relative="1" as="geometry">
            <mxPoint x="95.5" y="695.56" as="targetPoint" />
            <mxPoint x="114.9666666666667" y="651.9987878787877" as="sourcePoint" />
            <Array as="points">
              <mxPoint x="114" y="352" />
            </Array>
            <mxPoint x="-12" y="47" as="offset" />
          </mxGeometry>
        </mxCell>
        <mxCell id="gkslSzUZBu15OZ3BqOwb-55" value="" style="endArrow=classic;html=1;rounded=0;exitX=0.5;exitY=1;exitDx=0;exitDy=0;entryX=0.437;entryY=0.095;entryDx=0;entryDy=0;entryPerimeter=0;strokeColor=#FF3333;" edge="1" parent="2" source="gkslSzUZBu15OZ3BqOwb-41" target="gkslSzUZBu15OZ3BqOwb-49">
          <mxGeometry width="50" height="50" relative="1" as="geometry">
            <mxPoint x="255.5" y="382" as="sourcePoint" />
            <mxPoint x="305.5" y="332" as="targetPoint" />
          </mxGeometry>
        </mxCell>
        <mxCell id="gkslSzUZBu15OZ3BqOwb-59" value="Alert registered account owner" style="rounded=1;whiteSpace=wrap;html=1;arcSize=40;fontColor=#000000;fillColor=#ffffc0;strokeColor=#ff0000;" vertex="1" parent="2">
          <mxGeometry x="150" y="92" width="120" height="40" as="geometry" />
        </mxCell>
        <mxCell id="gkslSzUZBu15OZ3BqOwb-60" value="" style="edgeStyle=orthogonalEdgeStyle;html=1;verticalAlign=bottom;endArrow=open;endSize=8;strokeColor=#ff0000;rounded=0;entryX=0.5;entryY=0;entryDx=0;entryDy=0;" edge="1" source="gkslSzUZBu15OZ3BqOwb-59" parent="2" target="gkslSzUZBu15OZ3BqOwb-41">
          <mxGeometry relative="1" as="geometry">
            <mxPoint x="75.5" y="112" as="targetPoint" />
          </mxGeometry>
        </mxCell>
        <mxCell id="3" value="FFYAM CSR" style="swimlane;whiteSpace=wrap" parent="1" vertex="1">
          <mxGeometry x="444.5" y="128" width="280" height="570" as="geometry" />
        </mxCell>
        <mxCell id="13" value="" style="ellipse;shape=startState;fillColor=#000000;strokeColor=#ff0000;" parent="3" vertex="1">
          <mxGeometry x="60" y="40" width="30" height="30" as="geometry" />
        </mxCell>
        <mxCell id="14" value="" style="edgeStyle=elbowEdgeStyle;elbow=horizontal;verticalAlign=bottom;endArrow=open;endSize=8;strokeColor=#FF0000;endFill=1;rounded=0" parent="3" source="13" target="15" edge="1">
          <mxGeometry x="40" y="20" as="geometry">
            <mxPoint x="55" y="90" as="targetPoint" />
          </mxGeometry>
        </mxCell>
        <mxCell id="15" value="CSR of FFYAM  &#xa;processes for system" style="" parent="3" vertex="1">
          <mxGeometry x="20" y="127.5" width="120" height="60" as="geometry" />
        </mxCell>
        <mxCell id="21" value="Is the course full" style="rhombus;fillColor=#ffffc0;strokeColor=#ff0000;" parent="3" vertex="1">
          <mxGeometry x="115" y="332" width="80" height="40" as="geometry" />
        </mxCell>
        <mxCell id="23" value="no" style="edgeStyle=elbowEdgeStyle;elbow=horizontal;align=left;verticalAlign=top;endArrow=open;endSize=8;strokeColor=#FF0000;endFill=1;rounded=0" parent="3" source="21" target="gkslSzUZBu15OZ3BqOwb-69" edge="1">
          <mxGeometry x="-1" relative="1" as="geometry">
            <mxPoint x="175.12962962962956" y="502" as="targetPoint" />
          </mxGeometry>
        </mxCell>
        <mxCell id="20" value="" style="endArrow=open;strokeColor=#FF0000;endFill=1;rounded=0;entryX=0.376;entryY=0.835;entryDx=0;entryDy=0;entryPerimeter=0;" parent="3" target="21" edge="1">
          <mxGeometry relative="1" as="geometry">
            <mxPoint x="85.6953488372094" y="482" as="sourcePoint" />
            <mxPoint x="56.90291262135929" y="342" as="targetPoint" />
          </mxGeometry>
        </mxCell>
        <mxCell id="gkslSzUZBu15OZ3BqOwb-67" value="Process Registration Request" style="rounded=1;whiteSpace=wrap;html=1;arcSize=40;fontColor=#000000;fillColor=#ffffc0;strokeColor=#ff0000;" vertex="1" parent="3">
          <mxGeometry x="5" y="482" width="120" height="40" as="geometry" />
        </mxCell>
        <mxCell id="gkslSzUZBu15OZ3BqOwb-69" value="Assign Consumer to Instructor" style="rounded=1;whiteSpace=wrap;html=1;arcSize=40;fontColor=#000000;fillColor=#ffffc0;strokeColor=#ff0000;" vertex="1" parent="3">
          <mxGeometry x="140" y="482" width="120" height="40" as="geometry" />
        </mxCell>
        <mxCell id="4" value="FFYAM Instruction and Analysis" style="swimlane;whiteSpace=wrap" parent="1" vertex="1">
          <mxGeometry x="724.5" y="128" width="280" height="570" as="geometry" />
        </mxCell>
        <mxCell id="33" value="process&#xa;command" style="" parent="4" vertex="1">
          <mxGeometry x="90" y="405" width="110" height="50" as="geometry" />
        </mxCell>
        <mxCell id="38" value="" style="ellipse;shape=endState;fillColor=#000000;strokeColor=#ff0000" parent="4" vertex="1">
          <mxGeometry x="130" y="500" width="30" height="30" as="geometry" />
        </mxCell>
        <mxCell id="39" value="" style="endArrow=open;strokeColor=#FF0000;endFill=1;rounded=0" parent="4" source="33" target="38" edge="1">
          <mxGeometry relative="1" as="geometry" />
        </mxCell>
        <mxCell id="gkslSzUZBu15OZ3BqOwb-63" value="Assign instructor &amp;amp; analyst to course" style="rounded=1;whiteSpace=wrap;html=1;arcSize=40;fontColor=#000000;fillColor=#ffffc0;strokeColor=#ff0000;" vertex="1" parent="4">
          <mxGeometry x="10" y="102" width="120" height="40" as="geometry" />
        </mxCell>
        <mxCell id="gkslSzUZBu15OZ3BqOwb-64" value="" style="edgeStyle=orthogonalEdgeStyle;html=1;verticalAlign=bottom;endArrow=open;endSize=8;strokeColor=#ff0000;rounded=0;" edge="1" source="gkslSzUZBu15OZ3BqOwb-63" parent="4">
          <mxGeometry relative="1" as="geometry">
            <mxPoint x="70" y="202" as="targetPoint" />
          </mxGeometry>
        </mxCell>
        <mxCell id="gkslSzUZBu15OZ3BqOwb-65" value="" style="ellipse;html=1;shape=startState;fillColor=#000000;strokeColor=#ff0000;" vertex="1" parent="4">
          <mxGeometry x="35.5" y="22" width="30" height="30" as="geometry" />
        </mxCell>
        <mxCell id="gkslSzUZBu15OZ3BqOwb-66" value="" style="edgeStyle=orthogonalEdgeStyle;html=1;verticalAlign=bottom;endArrow=open;endSize=8;strokeColor=#ff0000;rounded=0;entryX=0.335;entryY=0.032;entryDx=0;entryDy=0;entryPerimeter=0;" edge="1" source="gkslSzUZBu15OZ3BqOwb-65" parent="4" target="gkslSzUZBu15OZ3BqOwb-63">
          <mxGeometry relative="1" as="geometry">
            <mxPoint x="170.5" y="142" as="targetPoint" />
          </mxGeometry>
        </mxCell>
        <mxCell id="22" value="yes" style="edgeStyle=elbowEdgeStyle;elbow=horizontal;align=left;verticalAlign=bottom;endArrow=open;endSize=8;strokeColor=#FF0000;exitX=0.5;exitY=0;endFill=1;rounded=0;" parent="1" source="21" target="gkslSzUZBu15OZ3BqOwb-59" edge="1">
          <mxGeometry x="-1" relative="1" as="geometry">
            <mxPoint x="605" y="278" as="targetPoint" />
            <Array as="points">
              <mxPoint x="460" y="340" />
            </Array>
          </mxGeometry>
        </mxCell>
        <mxCell id="gkslSzUZBu15OZ3BqOwb-54" value="" style="endArrow=classic;html=1;rounded=0;entryX=0.187;entryY=0.014;entryDx=0;entryDy=0;exitX=0.869;exitY=0.99;exitDx=0;exitDy=0;exitPerimeter=0;fillColor=#f8cecc;strokeColor=#FF3333;entryPerimeter=0;" edge="1" parent="1" source="gkslSzUZBu15OZ3BqOwb-52" target="gkslSzUZBu15OZ3BqOwb-67">
          <mxGeometry width="50" height="50" relative="1" as="geometry">
            <mxPoint x="290" y="600" as="sourcePoint" />
            <mxPoint x="465" y="610" as="targetPoint" />
          </mxGeometry>
        </mxCell>
        <mxCell id="gkslSzUZBu15OZ3BqOwb-50" value="no" style="edgeStyle=orthogonalEdgeStyle;html=1;align=left;verticalAlign=bottom;endArrow=open;endSize=8;strokeColor=#ff0000;rounded=0;exitX=1;exitY=0.5;exitDx=0;exitDy=0;" edge="1" source="gkslSzUZBu15OZ3BqOwb-49" parent="1" target="gkslSzUZBu15OZ3BqOwb-67">
          <mxGeometry x="-0.4547" relative="1" as="geometry">
            <mxPoint x="480" y="610" as="targetPoint" />
            <Array as="points">
              <mxPoint x="327" y="480" />
              <mxPoint x="480" y="480" />
            </Array>
            <mxPoint as="offset" />
          </mxGeometry>
        </mxCell>
      </root>
    </mxGraphModel>
  </diagram>
</mxfile>
